<svg xmlns="http://www.w3.org/2000/svg" viewBox="276.3 277.8 520 520">
<style>path{fill:#EDE6DB}@media(prefers-color-scheme:light){path{fill:#241410}}</style>
<path d="M357.3,731.2c-3,2.9-3.7-.2-4-3-3.4-26.9,7.6-78.7,12.8-106.9,9.7-52.6,28.6-145.1,56-189.7,6.4-10.4,12.3-21.4,26.8-15.8l12.2,15.1c23.6-39.3,36.5-67.3-9.5-95-7.1-4.3-45.2-18.8-36.4-31,2.8-2.7,6.7-2.1,10.2-1.9,51,2.9,101.1,43.1,146.8,62.6,6.7,2.9,17.1,7.9,24.2,8.5,14,1,45.5-18.6,60.6-24.7,17.5-7.1,42-19,60.4-10.9,12.6,12.8-24.4,47.9-33.7,55.8-50.2,42.7-108.8,47.1-158.5,87.4-76,61.5-125.9,163.2-167.9,249.5Z"/><path d="M674.6,771.8c-6.4,6.4-27.8-23-32.5-27.4-47.4-44.7-99.8-83.9-143.5-132.9-5-5.6-27.1-31.7-28.6-36.5-1.1-3.5-1-4.7.2-8.1,3.9-10.9,42.4-51.4,52.8-61,29.6-27.5,33.5-28.6,52.3,8.8,24.2,48.2,39.2,105.6,59.2,156.1,10.7,27,30.9,61.8,38.2,87.7,1.3,4.4,2.7,8.6,1.9,13.3Z"/>
</svg>